<?xml version="1.0" encoding="UTF-8" standalone="no"?>
<!-- Created with Inkscape (http://www.inkscape.org/) -->

<svg
   width="64mm"
   height="64mm"
   viewBox="0 0 64 64"
   version="1.1"
   id="svg5"
   inkscape:version="1.1.2 (0a00cf5339, 2022-02-04)"
   sodipodi:docname="earth.svg"
   xmlns:inkscape="http://www.inkscape.org/namespaces/inkscape"
   xmlns:sodipodi="http://sodipodi.sourceforge.net/DTD/sodipodi-0.dtd"
   xmlns="http://www.w3.org/2000/svg"
   xmlns:svg="http://www.w3.org/2000/svg">
  <sodipodi:namedview
     id="namedview7"
     pagecolor="#ffffff"
     bordercolor="#666666"
     borderopacity="1.0"
     inkscape:pageshadow="2"
     inkscape:pageopacity="0.0"
     inkscape:pagecheckerboard="0"
     inkscape:document-units="mm"
     showgrid="false"
     inkscape:showpageshadow="false"
     borderlayer="true"
     inkscape:snap-global="false"
     inkscape:zoom="1.3113356"
     inkscape:cx="-83.883944"
     inkscape:cy="243.64473"
     inkscape:window-width="1680"
     inkscape:window-height="986"
     inkscape:window-x="0"
     inkscape:window-y="0"
     inkscape:window-maximized="1"
     inkscape:current-layer="layer1" />
  <defs
     id="defs2" />
  <g
     inkscape:label="Layer 1"
     inkscape:groupmode="layer"
     id="layer1">
    <g
       id="g14730"
       transform="matrix(1.0197827,0,0,1.0197827,-1.2456147,-0.5889553)">
      <circle
         style="fill:none;fill-opacity:1;stroke:#fffffa;stroke-width:2.07560558;stroke-linecap:round;stroke-linejoin:bevel;stroke-miterlimit:4;stroke-dasharray:none;stroke-opacity:1;paint-order:stroke fill markers"
         id="path12645"
         cx="32.600685"
         cy="31.956764"
         r="29.917509" />
      <path
         style="fill:#ffffff;fill-opacity:1;stroke:none;stroke-width:0.258025px;stroke-linecap:butt;stroke-linejoin:miter;stroke-opacity:1"
         d="m 19.747462,5.8541628 0.487878,0.7880208 -0.987284,0.7566998 -0.489222,0.8585411 -0.07897,0.4803834 -0.759774,0.7349864 0.08166,0.8326007 -0.537453,1.292423 -1.116411,1.349301 -0.626996,0.94328 -0.648325,1.529925 -0.208103,1.289541 0.132106,1.113549 0.516656,0.717274 -0.138862,0.817819 0.216649,0.442673 -0.03872,0.608643 0.05476,0.495393 -0.03451,0.813674 0.426233,0.589418 0.03288,0.476099 0.115356,0.411762 0.474537,0.226024 -0.243892,0.683102 0.388732,0.620668 0.383909,-0.63935 -0.24756,-0.662381 -0.01787,-0.507689 -0.324193,-0.795129 -0.128604,-0.911096 -0.190969,-0.682693 -0.235333,-0.332685 0.08343,-0.631061 0.04762,-0.340906 0.328066,-0.350824 0.427659,0.631265 0.01081,0.34274 -0.09532,0.547364 0.430785,0.967483 0.644446,1.174485 0.579362,1.018979 0.06358,0.597502 0.411354,0.947034 -0.05299,0.403271 -0.161145,0.405785 -0.131933,0.38486 v 0.332752 l 0.227588,0.0964 0.07949,0.176429 0.03818,0.220862 1.39066,1.216335 1.199146,0.900497 1.080189,0.576035 0.366246,0.05734 0.270319,0.150681 0.626918,-0.175547 0.517132,-0.183293 0.397021,0.07031 0.319505,0.297495 0.321951,0.38384 0.30551,0.391857 0.384384,0.255102 0.530381,0.279898 0.891394,0.232207 0.517606,0.2746 0.284382,0.352862 0.03302,0.178198 0.544988,0.563939 0.259516,0.502458 0.134517,0.136146 -0.05333,0.217871 0.228404,0.369778 0.03227,0.243145 0.408025,0.0088 0.45341,0.07807 0.394981,0.324668 0.214272,0.188115 0.104622,-0.01597 0.119705,0.28839 0.227248,0.03954 0.182138,-0.148575 0.330103,0.113113 0.0036,0.198171 0.171879,0.226296 0.210943,-0.233227 0.480585,-0.525081 0.02526,-0.283838 0.206866,-0.02188 -0.0045,0.283907 0.204898,0.342874 0.205235,0.31244 0.268826,0.41679 0.254557,0.313392 0.0016,0.467266 -0.08172,0.228878 0.1659,0.459318 -0.218145,0.226977 -0.212368,0.67522 -0.29967,0.59723 -0.532145,0.293348 -0.470526,0.415908 -0.234112,-0.04049 -0.211552,0.141104 0.321339,0.25714 -0.09056,0.139473 -0.421479,0.354967 -0.290702,-0.0127 0.08071,0.201092 -0.142397,0.184718 -0.163249,-0.08112 -0.0409,0.02996 0.122559,0.183768 -0.301843,0.512105 -0.06508,0.229627 0.07711,0.435948 -0.0069,0.37528 0.31536,0.433435 -0.382209,0.207545 -0.368896,0.171473 -0.0765,0.136485 -0.190222,0.02982 0.07881,0.139134 0.105912,0.134514 0.03872,0.254286 -0.05435,0.220183 0.01806,0.185329 0.032,0.155169 0.164409,0.175003 -0.07867,0.123781 0.551577,0.45463 0.445323,0.456941 0.464414,0.969522 0.483028,0.787588 0.251091,0.505514 0.219505,0.378949 0.455378,0.554294 0.04773,0.288459 0.197256,0.389377 -0.119502,0.241277 0.269538,0.417366 0.708033,0.669378 0.192429,0.04334 0.312477,0.236217 0.726714,0.258464 0.682491,0.161451 0.570938,0.242023 0.372802,0.28394 0.190628,0.652871 -0.125239,0.720331 -0.282006,0.700865 -0.1499,0.303608 -0.205576,0.498383 -0.28221,0.462783 -0.376198,0.586529 -0.301739,0.411491 -0.108528,0.09541 -0.111077,0.430614 -0.262879,0.445902 -0.271813,-0.0038 -0.05503,0.205644 -0.280409,0.236318 -0.247629,0.197492 -0.245896,0.313222 -0.324329,0.03247 -0.184209,0.291414 -0.20031,0.140866 -0.02154,0.213015 -0.131526,0.148576 -0.269197,-0.03977 -0.247087,0.16104 -0.22898,0.05323 0.08108,0.133731 0.323856,-0.01961 0.139879,0.156967 -0.06518,0.136518 -0.194876,0.03322 -0.203879,-0.135362 -0.336317,0.04929 -0.36302,0.290665 0.292298,0.111551 -0.307651,0.150277 -0.422939,0.105641 -0.604769,-0.02309 -0.296917,-0.01682 0.160569,0.189613 0.524807,0.194568 1.083315,0.09141 1.367086,-0.01063 1.103322,-0.0714 0.351774,-0.163286 0.01481,-0.09388 0.14749,-0.05313 0.305953,0.0448 0.496649,-0.145451 0.509658,-0.30612 0.01693,-0.133498 0.0931,-0.05615 0.194231,-0.04025 0.672059,-0.386423 0.671521,-0.153977 1.060384,-0.313969 0.575763,-0.109037 0.549947,-0.07745 0.490636,-0.232615 0.462306,-0.153164 0.887591,-0.3532 0.426334,-0.198308 0.06271,-0.105403 0.03801,-0.119161 0.28472,-0.09269 0.0019,-0.104758 0.151837,-0.08791 0.05568,-0.09172 0.110295,0.08101 0.18557,-0.06797 v -0.08716 l 0.1374,0.0052 0.288323,-0.167974 0.30738,-0.161348 0.328471,-0.135466 0.295252,-0.01987 0.318826,-0.212744 -0.02157,-0.0695 0.0609,-0.123032 0.175377,-0.02185 0.485882,-0.282822 0.55246,-0.38496 0.780827,-0.573894 0.399433,-0.293722 0.04107,-0.132375 0.14365,0.0065 0.168552,-0.192907 0.09841,-0.22249 0.389004,-0.472431 0.36278,-0.496683 0.440092,-0.422667 0.310607,-0.306122 0.274973,-0.136621 0.298038,-0.263355 0.481363,-0.30123 0.439447,-0.235231 0.405479,-0.228196 0.527695,-0.256155 0.265428,-0.12147 0.46455,-0.492542 0.511256,-0.572941 0.203266,-0.32426 0.390565,-0.504054 0.57848,-0.808377 0.04263,-0.183293 0.193416,-0.368215 0.125173,-0.09481 0.09019,-0.240324 0.198782,-0.236148 -0.01698,-0.119636 0.118277,-0.211384 0.06702,-0.328948 0.154387,-0.322258 0.145043,-0.180676 0.0064,-0.186689 0.0982,-0.131084 0.169842,-0.200956 0.08978,-0.03322 0.06074,-0.134617 0.09521,-0.04212 0.2032,-0.359793 0.06417,-0.230847 0.159956,-0.09022 0.111314,-0.21512 0.124086,-0.07537 0.01141,-0.172322 0.09484,-0.09494 0.04695,-0.176974 0.296304,-0.166718 -0.01574,-0.169909 0.222593,-0.323886 0.246306,-0.47722 0.159072,-0.26237 0.01618,-0.124154 0.18591,-0.439584 0.07398,-0.447225 -0.0068,-0.468353 -0.206902,-0.273886 -0.307411,0.04606 -0.261284,-0.200785 -0.286725,-0.358706 -0.382212,0.07436 -0.580551,0.0998 -0.286625,-0.03584 -0.399193,-0.284858 -0.28632,-0.232751 -0.241989,-0.0856 -0.261013,0.167327 -0.275005,-0.234109 -0.174802,0.03472 -0.195247,-0.140155 -0.160535,0.04708 -0.293486,-0.168654 -0.302214,0.03448 -0.108291,0.166444 -0.131559,-0.140154 -0.268315,0.133156 0.0046,-0.147015 0.468046,-0.156933 0.202622,-0.267433 0.08974,-0.237912 -0.160025,-0.193281 -0.06273,-0.388359 -0.100751,-0.123134 -0.0089,-0.23319 -0.068,-0.165154 -0.0765,-0.273004 -0.236624,-0.181695 -0.08435,-0.326606 -0.150139,-0.296135 -0.152178,-0.09776 -0.183631,-0.223917 -0.35857,-0.185265 -0.66435,-0.188012 -0.592815,-0.08013 -0.250038,0.03366 -0.299294,-0.04388 -0.218856,0.115933 -0.180814,0.18207 -0.232718,-0.05734 -0.265224,-0.09926 -0.413291,-0.299838 -0.129892,-0.173713 -0.116808,-0.05935 -0.131288,-0.271128 -0.191626,-0.13297 -0.263706,0.02911 h -0.560681 l -0.474041,-0.118172 -0.252178,-0.108425 -0.171328,-0.128814 -0.283786,-0.199959 -0.07417,-0.144499 -0.177165,-0.191267 -0.06433,-0.169862 0.08359,-0.139623 -0.159824,-0.02415 -0.05758,0.03241 -0.04912,-0.278673 0.04801,-0.303504 -0.316814,0.08956 -0.117308,0.243893 -0.02457,0.203127 -0.02342,0.163572 -0.03394,0.0557 -0.08795,-0.177287 -0.0074,-0.183241 -0.254675,-0.25208 0.02906,-0.229144 -0.452499,0.09596 -0.124971,-0.007 -0.117118,0.10338 -0.195177,0.10489 -0.131219,-0.02173 -0.08349,-0.118751 0.144762,-0.161986 -0.16261,0.01861 -0.134601,0.08916 -0.0049,0.07021 -0.169912,0.181609 -0.646644,-0.0013 -0.552778,0.07378 -0.536803,-0.01566 -0.325243,-0.272714 -0.130449,0.033 -0.129149,0.03329 0.0025,-0.09882 -0.148101,0.08109 -0.05229,-0.05291 0.184274,-0.127709 0.03543,-0.209112 -0.126799,-0.05983 -0.21478,0.02108 -0.07777,0.18562 -0.110367,0.134434 -0.170727,-0.01551 -0.256405,0.108231 h -0.172458 l -0.18365,-0.29981 -0.129871,-0.404384 -0.12161,-0.214037 -0.163258,0.01112 -0.116615,-0.02734 -0.1316,0.135107 0.01845,0.06853 -0.224291,0.263947 -0.152015,0.256191 -0.243723,0.19943 -0.231905,0.04204 -0.473935,-0.01814 0.01558,-0.14701 -0.103809,-0.05044 -7.74e-4,-0.112688 0.007,-0.141666 0.06953,-0.153014 0.0031,-0.08851 0.137604,-0.125163 0.0087,-0.08933 0.189726,-0.210768 0.148979,-0.02817 0.16949,-0.187531 -0.445373,-0.01398 -0.123363,0.100534 -0.576316,0.533043 -0.222622,0.119954 -0.322288,0.02632 -0.238007,0.08131 -0.279978,0.317223 -0.472183,0.03506 -0.42754,0.0979 -0.352697,0.09629 -0.190688,0.04778 0.104182,0.148726 -0.07937,0.204619 -0.108339,0.334852 -0.03386,0.09243 0.003,0.07875 -0.03019,0.05781 -0.08222,0.02237 -0.0842,-0.03032 -0.05043,0.02731 -0.04548,0.14372 -0.05033,0.04182 -0.287305,-0.03337 -0.113888,0.05795 0.0071,0.07337 -0.105769,0.08074 -0.05231,0.0658 -0.115182,0.03591 -0.304684,-0.33336 -0.337241,-0.370834 -0.332881,-0.149231 -0.547493,-0.01323 -0.393026,0.138436 -0.202396,0.07779 -0.259073,-0.04556 -0.155104,0.0091 -0.106513,0.05981 -0.08256,-0.04116 -0.126796,-0.0042 -0.0907,-0.112566 -0.0057,-0.128525 -0.09979,-0.186426 -0.09807,-0.09332 -0.130401,-0.04863 -0.08808,-0.375373 0.0026,-0.675442 -0.01597,-0.09167 0.04731,-0.214106 -0.0011,-0.202 0.04609,-0.105925 -0.03406,-0.0761 0.07317,-0.118222 0.02336,-0.14487 0.107581,-0.149905 0.06428,-0.01731 0.0062,-0.294859 0.07503,-0.107412 -0.02656,-0.188191 0.03969,-0.121628 -0.0029,-0.09198 0.02816,-0.06526 0.02782,-0.0413 -0.02405,-0.118321 -0.172871,-0.185264 -0.433054,-0.269894 -0.42653,-0.123075 -0.07061,-0.04669 -0.136756,-0.002 -0.133257,-0.05724 -0.14326,0.04093 -0.136349,-0.03081 -0.384452,0.06403 -0.246847,-0.02549 -0.254083,0.0595 -0.329389,0.03507 -0.06671,-0.06687 -0.06743,-0.08197 -0.03864,-0.180525 0.09829,-0.253862 0.06793,-0.08594 0.02245,-0.199224 0.08336,-0.05977 0.126056,-0.357548 0.09623,-0.09163 -0.0029,-0.124936 0.08852,-0.0742 -0.03582,-0.236743 0.02317,-0.173016 0.07585,-0.172967 -0.0023,-0.163862 0.05721,-0.233651 0.01401,-0.226329 0.110754,-0.124291 0.07416,-0.0094 0.114168,-0.172764 0.04942,-0.147388 0.176329,-0.197119 0.186026,-0.308005 0.03061,-0.140136 -0.05842,-0.137351 -0.273816,-0.240003 -0.348685,-0.02028 -0.09802,0.0442 -0.290836,-0.002 -0.256477,0.06882 -0.30867,0.08757 -0.357922,0.0609 -0.127519,0.141003 -0.04567,0.182527 -0.04979,0.171846 0.01966,0.08154 -0.08959,0.161162 -0.02312,0.266158 -0.08543,0.16517 -0.08568,0.176737 -0.132815,0.19158 -0.105911,0.116393 -0.21991,0.154556 -0.135874,0.159837 -0.180609,0.01 -0.141257,0.05968 -0.229811,-0.02929 -0.182664,0.02059 -0.127382,0.08465 -0.103739,0.09523 h -0.172184 l -0.215053,-0.0306 -0.102381,0.01878 -0.06124,0.07155 -0.120299,-0.03089 -0.166071,-0.09166 -0.0096,-0.05119 -0.06717,-0.02444 -0.06846,-0.145145 -0.170401,-0.08728 -0.01738,-0.144841 -0.09448,-0.09983 -0.126328,-0.08942 -0.0194,-0.133477 -0.155149,-0.154965 v -0.06513 l -0.05637,-0.04743 -0.0071,-0.09225 -0.100716,-0.04278 0.0084,-0.136603 -0.148917,-0.155336 0.0084,-0.106051 -0.082,-0.176905 -0.07699,-0.160483 -0.0071,-0.390958 0.01035,-0.432772 0.04294,-0.163744 -0.0033,-0.283023 0.02242,-0.160178 -0.02347,-0.05554 0.06685,-0.146845 -0.03646,-0.195045 0.05815,-0.02494 0.0251,-0.208005 0.0048,-0.196489 0.08343,-0.141851 0.136978,-0.198918 0.162945,-0.155032 0.136722,-0.09734 0.127567,-0.07212 0.06777,-0.1088 0.0241,-0.125445 0.02417,-0.113573 0.0038,-0.15566 -0.01484,-0.07801 -0.01076,-0.185501 -0.0407,-0.145503 -0.06964,-0.04113 0.04867,-0.06019 0.04773,-0.148917 0.06503,-0.129826 0.157952,-0.243365 0.09292,-0.208209 0.215511,-0.158802 0.209907,-0.05501 0.207784,-0.159905 0.220725,-0.07531 0.191649,-0.143414 0.290853,-0.137894 0.121471,-0.0874 0.164967,-0.05121 0.21337,-0.05708 0.208464,-0.06417 0.107747,0.04363 0.11133,-0.02356 0.140732,-0.0084 0.167208,0.116664 0.166715,0.0437 0.24863,0.07517 0.219624,0.125224 0.105981,0.06559 0.07405,0.06548 0.199647,0.03821 0.231751,-0.07611 0.09487,0.104096 0.231236,0.02925 0.236099,0.06411 0.134276,-0.07049 -0.01156,-0.141784 -0.190646,-0.206085 -0.138591,-0.247221 h 0.07764 l 0.08366,-0.108426 0.123762,-0.141597 0.171336,-0.0469 0.104469,-0.0423 0.300534,-0.0066 0.367944,-0.0073 0.04888,0.03894 0.194909,0.0026 0.139509,-0.03035 0.41436,0.04212 0.286472,0.06727 0.160773,0.163676 0.09061,0.161265 0.111825,0.14484 0.18584,0.07016 0.152346,-0.02876 0.155746,-0.232835 0.08706,0.05087 0.09234,-0.0086 0.05442,-0.144111 0.08829,-0.09686 0.262592,0.02059 0.109191,0.04433 0.01747,0.114982 0.14044,0.03662 0.05517,-0.0802 0.04033,0.131593 0.149138,0.145164 0.02546,0.127533 -0.0087,0.362832 -0.08635,0.192345 -0.0029,0.22098 -0.04523,0.176957 0.04434,0.06271 0.13253,0.0598 v 0.181696 l 0.0698,0.09956 7.74e-4,0.08114 0.03518,0.05618 0.0079,0.199174 0.109361,0.07462 0.06715,0.273037 0.103892,0.206849 0.08176,0.06444 -0.01047,0.112571 0.0876,0.188642 -0.0036,0.09731 0.252554,0.0426 0.229131,-0.08572 0.196981,-0.240971 0.110771,-0.34639 0.02219,-0.400605 -0.0059,-0.467861 -0.130828,-0.161231 -0.125478,-0.444406 -0.146777,-0.50628 -0.09088,-0.510678 -0.0066,-0.558251 0.112416,-0.210722 0.154506,-0.257241 0.149884,-0.08181 -0.03117,-0.11495 0.176533,-0.118735 0.13005,-0.03797 0.154435,-0.14564 0.126074,-0.06548 0.08472,-0.03765 0.128453,-0.06857 -0.03857,-0.06225 0.04198,-0.0606 0.01259,-0.09956 0.142037,-0.07256 0.158174,-0.154046 0.323208,-0.177127 0.160499,-0.104606 0.131033,-0.04599 0.205184,-0.171861 0.194163,-0.110363 0.145418,-0.05925 0.226077,-0.215749 0.03444,-0.133632 0.09073,-0.07249 0.004,-0.08579 -0.141901,-0.08217 -0.07147,-0.04107 -0.009,-0.149902 -0.03729,-0.141682 -0.02998,-0.169796 -0.122521,-0.0046 -0.09997,-0.09742 0.06234,-0.186101 0.03026,-0.17128 -0.13369,-0.03171 0.08462,-0.232793 0.0013,-0.312922 0.06408,0.208367 0.05364,0.254916 0.08716,0.199454 h 0.11786 l 0.133188,-0.210551 0.08856,-0.601537 0.03977,-0.19112 0.09108,-0.157206 0.13321,-0.0552 0.137703,-0.174931 0.19405,-0.140225 0.249224,-0.117284 0.606052,-0.06973 0.323656,-0.03932 0.177621,0.04239 0.148199,-0.02647 -0.02472,-0.07835 -0.187757,-0.109745 -0.122787,-0.108085 0.05832,-0.101169 -0.02853,-0.18048 0.144595,-0.156582 0.04275,-0.175099 -0.0038,-0.152378 -0.0343,-0.111832 0.218404,-0.136405 0.151608,-0.01235 0.143516,-0.06113 0.06694,-0.08224 0.08834,0.05209 0.225635,-0.161649 0.134268,0.01929 0.363145,-0.129991 0.283162,-0.146205 0.381064,-0.154851 0.126533,0.02471 -0.236878,0.172025 -0.204139,0.223763 -0.113467,0.187061 0.01767,0.228782 0.179184,0.162874 0.230462,0.101049 0.04033,-0.205868 0.180816,-0.290296 0.157157,-0.161961 0.126845,-0.0307 0.124394,-0.157013 0.211152,-0.01317 0.248311,-0.08424 0.377702,-0.189391 -0.05217,-0.19004 -0.112649,-0.189319 -0.225372,0.04213 -0.122908,0.04239 -0.192055,-0.165108 -0.216101,-0.01862 -0.284124,0.03048 -0.213627,-0.111449 -0.06223,-0.154419 -0.12509,-0.04208 0.07561,-0.26582 -0.187494,-0.208655 -0.09884,-0.0484 0.104028,-0.151609 -0.306222,-0.267574 -0.09493,-0.128022 -0.153819,-0.316068 0.25746,-0.0275 0.19871,0.223378 0.138159,-0.03934 0.187373,0.290752 0.282225,0.105877 0.284388,-0.128864 0.06327,-0.26128 0.151993,0.0039 0.0552,-0.241945 h 0.26582 l 0.01713,-0.134243 0.216558,0.06632 0.08719,-0.180648 0.240647,-0.067181 -0.13931,0.428021 0.13626,0.373018 -0.05342,0.430063 -0.09221,0.219055 0.08022,0.24048 0.12783,0.131986 0.229096,-0.08263 0.273529,0.06751 0.291161,-0.111328 0.16859,0.02054 0.182834,0.111185 0.351327,0.05635 0.124708,0.02959 0.07309,0.174403 0.227533,-0.109239 0.183337,0.188431 0.288398,0.138854 0.04228,-0.105588 -0.220304,-0.297741 -0.128212,-0.304852 -0.196959,-0.204595 -0.282201,-0.262697 -0.24879,-0.10446 -0.280064,-0.163667 -0.212016,-0.05464 -0.237791,0.186004 -0.184227,0.215741 -0.08572,-0.246005 0.132898,-0.09337 -0.03175,-0.436501 -0.08035,-0.283498 L 42.8084,9.6948276 42.570873,9.2897924 42.420899,9.155213 41.987112,9.0625949 41.708321,8.9098571 41.346712,8.7588487 41.200797,8.6345253 41.023391,8.5543495 40.786256,8.4202086 40.592452,8.1499574 40.46028,8.1167535 40.173081,7.7896394 40.056177,7.703615 39.883432,7.5030834 39.565607,7.2449929 39.217333,6.920766 38.846365,6.6235439 38.906709,6.8476154 38.80737,7.0343049 38.507584,7.1594777 38.242478,7.2620788 37.864106,7.2112453 37.839283,6.9919124 37.669818,6.8340621 37.417059,6.5587497 37.138927,6.2521864 36.392543,5.9951148 36.086319,5.8369247 35.758356,5.7648782 35.384909,5.6305677 l -0.249598,0.126226 -0.35191,-0.1823415 -0.0013,0.4068375 0.102074,0.204285 -0.09504,0.2464394 -0.03815,0.3054765 -0.268044,0.1880481 -0.004,0.1057089 0.409247,0.1126728 0.260709,0.1637948 0.0045,0.3188938 -0.119873,0.2345165 -0.349363,0.1829191 -0.389616,0.073609 -0.219367,-0.036007 -0.02501,0.1523475 0.06162,0.108087 -0.162234,0.2121656 0.292534,0.2528255 -0.02364,0.27375 0.08023,0.2082929 -0.03271,0.3111831 -0.0874,0.1800656 -0.24624,-0.078432 L 33.650495,9.5195901 33.641719,9.3929905 33.370042,9.1576248 33.25071,8.8665169 33.184981,8.5907628 33.300847,8.4197328 33.261477,8.2431998 32.993536,8.1235978 32.71683,8.1049839 32.598995,8.1445912 32.305786,8.0235623 32.03798,7.862587 31.683961,7.7671701 31.437762,7.6880243 31.198116,7.6812976 31.059322,7.5142417 30.822528,7.5691685 30.690086,7.4882222 30.395514,7.3956586 30.164971,7.2468437 29.843291,7.1137903 29.575895,6.9170804 29.535746,6.6505656 29.42304,6.5523633 l 0.223543,-0.2217446 0.182173,-0.065898 0.383467,-0.3850641 0.392743,-0.2172268 0.316004,-0.1576465 0.374738,-0.099085 0.131216,-0.065569 h 0.271177 l 0.324401,-0.1367411 0.06579,-0.1855241 0.326804,-0.1953721 0.173468,0.040617 0.02895,0.090889 0.439356,-0.059135 0.488068,-0.1359972 0.219295,0.1197114 0.328775,-0.1541069 -0.156461,-0.206805 V 4.3312276 L 33.181521,4.1954711 32.513117,4.2949106 32.216719,3.9381299 31.684792,3.8029019 31.407274,4.0628852 30.88476,4.0858007 31.107803,3.8927826 31.573584,3.7528952 31.791627,3.4388685 32.639985,3.1484768 32.013277,3.0756031 31.309851,3.3958747 30.788011,3.5409502 30.579238,3.6074831 30.134544,3.9706048 29.825132,4.1801482 29.74457,4.431917 29.359879,4.5174256 28.995988,4.368891 29.220953,4.1343679 28.709057,4.1327393 28.396085,4.029649 28.996182,3.8810183 29.502984,3.9211785 30.079495,3.6402023 30.545369,3.3486119 30.169326,3.2039204 29.564284,3.5199166 29.012417,3.4978193 28.624701,3.2196294 H 28.308273 L 27.260988,3.3946331 27.202524,3.642655 27.558777,3.7520384 27.81578,3.9738792 27.565744,4.0716854 27.066721,3.9388593 26.624241,3.658844 26.50967,3.5453774 23.985159,4.2181543 21.488847,5.1288649 Z"
         id="path13334" />
    </g>
  </g>
</svg>
