<?xml version="1.0" encoding="UTF-8" standalone="no"?>
<!-- Created with Inkscape (http://www.inkscape.org/) -->

<svg
   xmlns:dc="http://purl.org/dc/elements/1.1/"
   xmlns:cc="http://creativecommons.org/ns#"
   xmlns:rdf="http://www.w3.org/1999/02/22-rdf-syntax-ns#"
   xmlns:svg="http://www.w3.org/2000/svg"
   xmlns="http://www.w3.org/2000/svg"
   xmlns:sodipodi="http://sodipodi.sourceforge.net/DTD/sodipodi-0.dtd"
   xmlns:inkscape="http://www.inkscape.org/namespaces/inkscape"
   width="64px"
   height="64px"
   id="svg2985"
   version="1.1"
   inkscape:version="0.92.2 5c3e80d, 2017-08-06"
   inkscape:export-filename="/Users/toddcope/T3/Projects/Games/Eight Ways to Die/icons/1024.png"
   inkscape:export-xdpi="1536"
   inkscape:export-ydpi="1536"
   sodipodi:docname="icon.svg">
  <defs
     id="defs2987" />
  <sodipodi:namedview
     id="base"
     pagecolor="#ffffff"
     bordercolor="#666666"
     borderopacity="1.0"
     inkscape:pageopacity="0"
     inkscape:pageshadow="2"
     inkscape:zoom="5.5"
     inkscape:cx="32"
     inkscape:cy="30.179636"
     inkscape:current-layer="layer1"
     showgrid="true"
     inkscape:document-units="px"
     inkscape:grid-bbox="true"
     inkscape:window-width="1920"
     inkscape:window-height="1035"
     inkscape:window-x="0"
     inkscape:window-y="1"
     inkscape:window-maximized="1">
    <inkscape:grid
       type="xygrid"
       id="grid2993"
       empspacing="4"
       visible="true"
       enabled="true"
       snapvisiblegridlinesonly="true" />
  </sodipodi:namedview>
  <metadata
     id="metadata2990">
    <rdf:RDF>
      <cc:Work
         rdf:about="">
        <dc:format>image/svg+xml</dc:format>
        <dc:type
           rdf:resource="http://purl.org/dc/dcmitype/StillImage" />
        <dc:title />
      </cc:Work>
    </rdf:RDF>
  </metadata>
  <g
     id="layer1"
     inkscape:label="Layer 1"
     inkscape:groupmode="layer">
    <path
       inkscape:connector-curvature="0"
       id="path3909"
       d="M 33,2 C 15.879173,2 2.0000002,15.879173 2.0000002,33 2.0000002,50.120827 15.879173,64 33,64 50.120827,64 64,50.120827 64,33 64,15.879173 50.120827,2 33,2 z M 32.78125,4 C 32.85408,3.9994621 32.927041,4 33,4 49.016258,4 62,16.983742 62,33 62,49.016258 49.016258,62 33,62 16.983742,62 4.0000002,49.016258 4.0000002,33 c 0,-7.253733 2.6605738,-13.883495 7.0624998,-18.96875 l 2.21875,-1.65625 1.34375,-0.46875 2,1.8125 0.90625,1.09375 0.75,1.46875 0.4375,2.1875 -0.71875,1.25 0,1.75 -0.09375,1.34375 0.1875,1.5625 1.1875,0.8125 0.71875,1.625 1.46875,0.375 1.34375,-1.09375 1.375,1.09375 1.625,1 2.90625,0.625 0.90625,0 0.84375,1.375 0.0625,1.53125 -0.90625,1.46875 -1.34375,1.09375 -0.75,1.34375 -0.25,1.375 1.1875,1.46875 L 30.375,39.625 31.28125,41 32,43.53125 l 0.625,3.1875 0.65625,3.5625 1,2.71875 0.90625,2.46875 0.71875,1.625 0.5625,0.8125 1.15625,0.375 0.75,-1 0.09375,-2 L 39,52.71875 39.46875,50.46875 40.375,49 l 1.90625,-2.09375 2,-2.28125 L 46.625,42 48,39.90625 48,36.625 47.71875,34.46875 46.09375,33 43.28125,31.28125 40.1875,31 l -4.375,-0.375 -1.90625,-0.34375 -1.28125,-0.5625 -0.53125,-0.8125 0.09375,-1.375 -0.5625,-0.625 -1,-1.09375 0.75,-1.625 1.53125,-0.8125 2,-0.75 1.71875,0 1.28125,1.5625 0.1875,1.28125 1.09375,0.4375 0.4375,-1.28125 0.5625,-1.71875 0.53125,-0.625 2.1875,-0.8125 0.71875,-1.375 0.46875,-1.625 1.1875,-1.75 0.25,-1.4375 L 44.625,14 l -0.25,-1.28125 -1,-0.1875 -1.09375,0.84375 -1.375,1.25 -0.71875,1.09375 -1,0.28125 -0.90625,-1.09375 0.53125,-1.375 1.09375,-0.71875 1.375,-1.1875 0.1875,-1.8125 L 40,8.46875 37.625,8 l -2.25,0 -1.1875,1.1875 -1.46875,1.4375 -1.4375,-0.25 -1.09375,-1.1875 0.53125,-1.90625 1,-1.5625 1.09375,-1.625 L 32.78125,4 z"
       style="fill:#000000;fill-opacity:0.50196081;stroke:none" />
    <path
       style="fill:#ffffff;fill-opacity:1;stroke:none"
       d="M 32,1 C 14.879173,1 1.0000002,14.879173 1.0000002,32 1.0000002,49.120827 14.879173,63 32,63 49.120827,63 63,49.120827 63,32 63,14.879173 49.120827,1 32,1 z M 31.78125,3 C 31.85408,2.9994621 31.927041,3 32,3 48.016258,3 61,15.983742 61,32 61,48.016258 48.016258,61 32,61 15.983742,61 3.0000002,48.016258 3.0000002,32 c 0,-7.253733 2.6605738,-13.883495 7.0624998,-18.96875 l 2.21875,-1.65625 1.34375,-0.46875 2,1.8125 0.90625,1.09375 0.75,1.46875 0.4375,2.1875 -0.71875,1.25 0,1.75 -0.09375,1.34375 0.1875,1.5625 1.1875,0.8125 0.71875,1.625 1.46875,0.375 1.34375,-1.09375 1.375,1.09375 1.625,1 2.90625,0.625 0.90625,0 0.84375,1.375 0.0625,1.53125 -0.90625,1.46875 -1.34375,1.09375 -0.75,1.34375 -0.25,1.375 1.1875,1.46875 L 29.375,38.625 30.28125,40 31,42.53125 l 0.625,3.1875 0.65625,3.5625 1,2.71875 0.90625,2.46875 0.71875,1.625 0.5625,0.8125 1.15625,0.375 0.75,-1 0.09375,-2 L 38,51.71875 38.46875,49.46875 39.375,48 l 1.90625,-2.09375 2,-2.28125 L 45.625,41 47,38.90625 47,35.625 46.71875,33.46875 45.09375,32 42.28125,30.28125 39.1875,30 l -4.375,-0.375 -1.90625,-0.34375 -1.28125,-0.5625 -0.53125,-0.8125 0.09375,-1.375 -0.5625,-0.625 -1,-1.09375 0.75,-1.625 1.53125,-0.8125 2,-0.75 1.71875,0 1.28125,1.5625 0.1875,1.28125 1.09375,0.4375 0.4375,-1.28125 0.5625,-1.71875 0.53125,-0.625 2.1875,-0.8125 0.71875,-1.375 0.46875,-1.625 1.1875,-1.75 0.25,-1.4375 L 43.625,13 l -0.25,-1.28125 -1,-0.1875 -1.09375,0.84375 -1.375,1.25 -0.71875,1.09375 -1,0.28125 -0.90625,-1.09375 0.53125,-1.375 1.09375,-0.71875 1.375,-1.1875 0.1875,-1.8125 L 39,7.46875 36.625,7 34.375,7 33.1875,8.1875 31.71875,9.625 30.28125,9.375 29.1875,8.1875 l 0.53125,-1.90625 1,-1.5625 1.09375,-1.625 L 31.78125,3 z"
       id="path3131"
       inkscape:connector-curvature="0" />
  </g>
</svg>
